<svg width="30" height="30" viewBox="0 0 30 30" fill="none" xmlns="http://www.w3.org/2000/svg">
<g clip-path="url(#clip0_16_149)">
<path d="M6.25 23.75H8.0175L19.66 12.1075L17.8925 10.34L6.25 21.9825V23.75ZM26.25 26.25H3.75V20.9463L20.5437 4.15251C20.7782 3.91817 21.096 3.78653 21.4275 3.78653C21.759 3.78653 22.0768 3.91817 22.3113 4.15251L25.8475 7.68876C26.0818 7.92317 26.2135 8.24106 26.2135 8.57251C26.2135 8.90397 26.0818 9.22185 25.8475 9.45626L11.5538 23.75H26.25V26.25ZM19.66 8.57251L21.4275 10.34L23.195 8.57251L21.4275 6.80501L19.66 8.57251Z" fill="#03053D"/>
</g>
<defs>
<clipPath id="clip0_16_149">
<rect width="30" height="30" fill="white"/>
</clipPath>
</defs>
</svg>
