<svg width="30" height="30" viewBox="0 0 30 30" fill="none" xmlns="http://www.w3.org/2000/svg">
<g clip-path="url(#clip0_16_191)">
<path d="M7.97751 7.46C9.96968 5.86383 12.4473 4.99593 15 5C17.6563 5 20.0975 5.92 22.0225 7.46L23.8388 5.64375L25.6063 7.41125L23.79 9.2275C25.1121 10.8827 25.9401 12.8775 26.1785 14.9825C26.417 17.0874 26.0562 19.2169 25.1379 21.1259C24.2195 23.0349 22.7808 24.6458 20.9873 25.7732C19.1938 26.9007 17.1184 27.4988 15 27.4988C12.8816 27.4988 10.8062 26.9007 9.01274 25.7732C7.21926 24.6458 5.78054 23.0349 4.86216 21.1259C3.94378 19.2169 3.58305 17.0874 3.8215 14.9825C4.05995 12.8775 4.88788 10.8827 6.21001 9.2275L4.39376 7.4125L6.16126 5.645L7.97751 7.46125V7.46ZM16.25 15V9.36875L10 17.5H13.75V23.125L20 15H16.25ZM10 1.25H20V3.75H10V1.25Z" fill="#03053D"/>
</g>
<defs>
<clipPath id="clip0_16_191">
<rect width="30" height="30" fill="white"/>
</clipPath>
</defs>
</svg>
