<svg width="30" height="30" viewBox="0 0 30 30" fill="none" xmlns="http://www.w3.org/2000/svg">
<g clip-path="url(#clip0_15_117)">
<path d="M24.22 15.52L10.9713 24.3525C10.8771 24.4151 10.7678 24.4511 10.6549 24.4565C10.5419 24.4619 10.4297 24.4365 10.33 24.3832C10.2303 24.3298 10.147 24.2504 10.0889 24.1534C10.0308 24.0565 10.0001 23.9455 10 23.8325V6.16749C10.0001 6.05444 10.0308 5.94352 10.0889 5.84655C10.147 5.74957 10.2303 5.67018 10.33 5.61682C10.4297 5.56346 10.5419 5.53813 10.6549 5.54353C10.7678 5.54893 10.8771 5.58486 10.9713 5.64749L24.22 14.48C24.3056 14.5371 24.3758 14.6144 24.4243 14.7051C24.4729 14.7958 24.4983 14.8971 24.4983 15C24.4983 15.1029 24.4729 15.2042 24.4243 15.2949C24.3758 15.3856 24.3056 15.4629 24.22 15.52Z" fill="#03053D"/>
</g>
<defs>
<clipPath id="clip0_15_117">
<rect width="30" height="30" fill="white"/>
</clipPath>
</defs>
</svg>
